<svg xmlns="http://www.w3.org/2000/svg" xmlns:xlink="http://www.w3.org/1999/xlink" width="100" height="100" viewBox="0 0 100 100"><rect width="100%" height="100%" fill="#F5D327" rx="5" ry="5"></rect><g transform="translate(50 50) scale(-0.69 0.69) rotate(0) translate(-50 -50)" style="fill:#000000"><svg fill="#000000" xmlns="http://www.w3.org/2000/svg" xmlns:xlink="http://www.w3.org/1999/xlink" xmlns:sketch="http://www.bohemiancoding.com/sketch/ns" viewBox="0 0 100 100" version="1.1" x="0px" y="0px"><title>Artboard 1 Copy 7</title><desc>Created with Sketch.</desc><g stroke="none" stroke-width="1" fill="none" fill-rule="evenodd" sketch:type="MSPage"><g sketch:type="MSArtboardGroup" fill="#000000"><path d="M20.185399,42.9450373 C19.4360512,44.0888164 19,45.4583347 19,46.9302149 C19,48.5676778 19.539679,50.0784525 20.4500182,51.2926628 L28.5,64 L22.3256572,78.7649089 C21.2897704,81.2194489 22.3821969,84.1557454 24.7680598,85.3244863 L30.229843,88 L38.2511595,88 C38.2511595,86.229348 36.8270074,84.6211759 35.0802321,84.4092607 L32,84 L28,80.5 L37.4329145,64.4459758 C37.8848187,63.6773353 38.054813,62.3701558 37.8030886,61.4931451 L35.0802326,51 C38.2511597,51 41.6099433,52.195558 45.3426612,55.3984715 C46.5772116,56.4577956 47.8627374,57.2167365 49.1471317,57.7463886 L57,49.5 C57.5,50.25 57.4683585,51.7215135 56.8125454,52.6115455 L51.5968161,59.6900353 C51.2658606,60.1391892 50.8785075,60.9319734 50.7286388,61.4648397 L46.5,76.5 L39.0532911,85.6278489 C39.9393013,86.963606 42.0539093,87.0570374 43.5,86 L48.1790724,82.5485069 C48.8981085,82.0229187 49.8378203,80.9773972 50.2795867,80.2104753 L58,66.5 L72,57.5 C74.5,56 74.9259676,53.132776 75,50.5 C76.8200024,51.7775454 79.1779377,52.5736198 81.5662689,52.5736198 L83,52.5736198 C84.3616068,53.644545 86.1370109,54 88,54 C92.4300507,54 96,50.5467167 96,46 L93.9983632,43.3032625 L91.8389756,45.473604 C90.5955667,46.7233203 88.5849201,46.7286647 87.334195,45.4715949 L85.4239212,43.5516306 C84.1794085,42.3008047 84.2877236,40.3885226 85.664932,39.2811668 L85.9341774,39.0646778 C86.6228834,38.5109181 88.1164248,38.062007 89,38 L93.9983597,38 L93.9983597,37.440272 C93.9983597,36.9063894 93.7070764,36.1144848 93.3477603,35.7010925 L91,33 L89.5,33 C87.5,31 84.6260878,30 81.5662683,30 C78.4023627,30 75.5,31.5 73.5029281,33.4310159 C73.5029281,33.4310159 70.3364253,36.4496058 67.9300304,36.4496056 C65.5236354,36.4496055 64.6118373,35.9264411 63.9193721,35.6434049 C51.7495601,30.6691525 37.0537727,32.3257229 27.8406331,37.1577394 C27.7100733,37.2032708 27.5822817,37.2631126 27.4593404,37.3377732 C25.6775334,38.4198408 23.6338139,39 21.5,39 C15.1487254,39 10,33.8512746 10,27.5 C10,21.1487254 15.1487254,16 21.5,16 C25.2460771,16 28.0949869,16.7002573 34.207009,18.7820814 C34.6614703,18.9369086 34.8730044,19.0089012 35.1179522,19.0919594 C41.0165492,21.0920856 44.3754788,21.8641169 48.5298171,21.7716901 C53.9209132,21.6517477 59.2961069,19.7498535 65.1498911,15.6363834 C66.0536406,15.0013161 66.2714507,13.7538585 65.6363834,12.8501089 C65.0013161,11.9463594 63.7538585,11.7285493 62.8501089,12.3636166 C57.6212417,16.0379559 53.0055317,17.6711235 48.4408462,17.7726797 C44.8822339,17.8518526 41.8858498,17.1631505 36.402456,15.3038134 C36.1600038,15.2216015 35.9507746,15.1503932 35.4966947,14.9956965 C28.9825113,12.7768916 25.8218241,12 21.5,12 C12.9395864,12 6,18.9395864 6,27.5 C6,35.6176315 12.240261,42.277772 20.185399,42.9450373 L20.185399,42.9450373 L20.185399,42.9450373 Z M67.047978,63.8333333 C67.047978,65.4444444 68,66.5 68.501868,67.29119 L79.8081833,85.2713896 C80.7483938,86.766587 82.962362,88 84.736685,88 L96,88 L96,88 C96.0000003,86.3431458 94.6731435,84.7587533 93.0522024,84.4640367 L85.0000005,83 L76.9999996,64.5 L78.2027657,57.203518 L67.3217046,61.8745577 C67.1527961,62.9967312 67.047978,63.7333773 67.047978,63.8333333 L67.047978,63.8333333 L67.047978,63.8333333 L67.047978,63.8333333 Z M3.01647355,69.4717141 L4.31859694,83.1666667 C6.09523697,83.1666667 7.62462696,81.7380842 7.73635312,79.9475034 L8.5,70.083333 L26.5,64 L20.5,57 L5.59219931,64.806588 C4.00048812,65.6037624 2.84728643,67.6923055 3.01647355,69.4717141 Z M83.7235005,36.6370779 C81.8390891,34.7526666 78.7813232,34.7551981 76.8937892,36.6427321 C75.0062551,38.5302662 75.0037236,41.5880321 76.8881349,43.4724434 L83.7235005,36.6370779 L83.7235005,36.6370779 L83.7235005,36.6370779 L83.7235005,36.6370779 Z M91.5,43 C92.3284271,43 93,42.3284271 93,41.5 C93,40.6715729 92.3284271,40 91.5,40 C90.6715729,40 90,40.6715729 90,41.5 C90,42.3284271 90.6715729,43 91.5,43 L91.5,43 L91.5,43 L91.5,43 Z" sketch:type="MSShapeGroup"></path></g></g></svg></g></svg>